<svg id="Layer_1" data-name="Layer 1" xmlns="http://www.w3.org/2000/svg" viewBox="0 0 64 128"><defs><style>.cls-1{fill:#f33;}.cls-1,.cls-10,.cls-11,.cls-12,.cls-13,.cls-14,.cls-15,.cls-16,.cls-17,.cls-18,.cls-19,.cls-2,.cls-20,.cls-21,.cls-22,.cls-23,.cls-24,.cls-25,.cls-26,.cls-27,.cls-28,.cls-29,.cls-30,.cls-32,.cls-33,.cls-34,.cls-35,.cls-36,.cls-37,.cls-38,.cls-39,.cls-40,.cls-41,.cls-42,.cls-43,.cls-44,.cls-45,.cls-49,.cls-50,.cls-52,.cls-56,.cls-63,.cls-65,.cls-69,.cls-70,.cls-72,.cls-9{stroke:#000;stroke-miterlimit:10;stroke-width:0.98px;}.cls-2{fill:#fb0;}.cls-3,.cls-31,.cls-78{font-size:2px;font-family:MyriadPro-Regular, Myriad Pro;}.cls-4{letter-spacing:0.01em;}.cls-5{letter-spacing:0em;}.cls-31,.cls-6{letter-spacing:-0.01em;}.cls-7{letter-spacing:0em;}.cls-8{letter-spacing:0.03em;}.cls-9{fill:#13f;}.cls-10{fill:#1a1;}.cls-11{fill:#61a;}.cls-12{fill:#f38;}.cls-13{fill:#222;}.cls-14{fill:#e72;}.cls-15{fill:#422;}.cls-16{fill:#271;}.cls-17{fill:#1e9;}.cls-18{fill:#ab0;}.cls-19{fill:#ff5c5c;}.cls-20{fill:#ffc933;}.cls-21{fill:#415cff;}.cls-22{fill:#41bb41;}.cls-23{fill:#8541bb;}.cls-24{fill:#ff5ca0;}.cls-25{fill:#4e4e4e;}.cls-26{fill:#f1924e;}.cls-27{fill:#694e4e;}.cls-28{fill:#4e9241;}.cls-29{fill:#41f1ad;}.cls-30{fill:#bbc933;}.cls-32{fill:#1f6;}.cls-33{fill:#41ff85;}.cls-34{fill:#ffadad;}.cls-35{fill:#ffe499;}.cls-36{fill:#7085ff;}.cls-37{fill:#70cc70;}.cls-38{fill:#a370cc;}.cls-39{fill:#ff85b8;}.cls-40{fill:#7a7a7a;}.cls-41{fill:#f5ad7a;}.cls-42{fill:#8f7a7a;}.cls-43{fill:#7aad70;}.cls-44{fill:#70f5c2;}.cls-45{fill:#ccd666;}.cls-46{letter-spacing:-0.02em;}.cls-47{letter-spacing:0em;}.cls-48{letter-spacing:0.01em;}.cls-49{fill:#70ffa3;}.cls-50{fill:#1fc3ff;}.cls-51{letter-spacing:-0.03em;}.cls-52{fill:#fff;}.cls-53{letter-spacing:-0.01em;}.cls-54{letter-spacing:-0.01em;}.cls-55{letter-spacing:-0.01em;}.cls-56{fill:#aaa;}.cls-57{letter-spacing:0.01em;}.cls-58{letter-spacing:0em;}.cls-59{letter-spacing:-0.01em;}.cls-60{letter-spacing:-0.01em;}.cls-61{letter-spacing:0em;}.cls-62{letter-spacing:0em;}.cls-63{fill:#ff8585;}.cls-64{letter-spacing:-0.01em;}.cls-65{fill:#852;}.cls-66{letter-spacing:0.01em;}.cls-67{letter-spacing:-0.01em;}.cls-68{letter-spacing:-0.01em;}.cls-69{fill:#c80;}.cls-70{fill:#a70;}.cls-71{letter-spacing:0.02em;}.cls-72{fill:#bb9233;}.cls-73{letter-spacing:0em;}.cls-74{letter-spacing:-0.01em;}.cls-75{letter-spacing:0.01em;}.cls-76{letter-spacing:-0.03em;}.cls-77{letter-spacing:-0.01em;}.cls-78{letter-spacing:-0.03em;}.cls-79{letter-spacing:0em;}.cls-80{letter-spacing:0.02em;}.cls-81{letter-spacing:0em;}.cls-82{letter-spacing:0em;}.cls-83{letter-spacing:-0.01em;}.cls-84{letter-spacing:0.02em;}.cls-85{letter-spacing:0em;}.cls-86{letter-spacing:-0.01em;}.cls-87{letter-spacing:-0.01em;}</style></defs><title>Key to Colours</title><rect class="cls-1" x="5.5" y="4.5" width="4" height="4"/><rect class="cls-2" x="5.5" y="10.5" width="4" height="4"/><text class="cls-3" transform="translate(1 2.67)"><tspan class="cls-4">M</tspan><tspan class="cls-5" x="1.62" y="0">other </tspan><tspan class="cls-6" x="6.57" y="0">C</tspan><tspan class="cls-5" x="7.71" y="0">ou</tspan><tspan class="cls-7" x="9.91" y="0">n</tspan><tspan x="11.01" y="0">t</tspan><tspan class="cls-8" x="11.67" y="0">r</tspan><tspan x="12.38" y="0">y</tspan></text><rect class="cls-9" x="5.5" y="16.5" width="4" height="4"/><rect class="cls-10" x="5.5" y="22.5" width="4" height="4"/><rect class="cls-11" x="5.5" y="28.5" width="4" height="4"/><rect class="cls-12" x="5.5" y="34.5" width="4" height="4"/><rect class="cls-13" x="5.5" y="40.5" width="4" height="4"/><rect class="cls-14" x="5.5" y="46.5" width="4" height="4"/><rect class="cls-15" x="5.5" y="52.5" width="4" height="4"/><rect class="cls-16" x="5.5" y="58.5" width="4" height="4"/><rect class="cls-17" x="5.5" y="64.5" width="4" height="4"/><rect class="cls-18" x="5.5" y="70.5" width="4" height="4"/><rect class="cls-19" x="18.5" y="4.5" width="4" height="4"/><rect class="cls-20" x="18.5" y="10.5" width="4" height="4"/><rect class="cls-21" x="18.5" y="16.5" width="4" height="4"/><rect class="cls-22" x="18.5" y="22.5" width="4" height="4"/><rect class="cls-23" x="18.5" y="28.5" width="4" height="4"/><rect class="cls-24" x="18.5" y="34.5" width="4" height="4"/><rect class="cls-25" x="18.5" y="40.5" width="4" height="4"/><rect class="cls-26" x="18.5" y="46.5" width="4" height="4"/><rect class="cls-27" x="18.5" y="52.5" width="4" height="4"/><rect class="cls-28" x="18.5" y="58.5" width="4" height="4"/><rect class="cls-29" x="18.5" y="64.5" width="4" height="4"/><rect class="cls-30" x="18.5" y="70.5" width="4" height="4"/><text class="cls-31" transform="translate(17 2.67)">C<tspan class="cls-5" x="1.14" y="0">olonies</tspan></text><rect class="cls-32" x="5.5" y="76.5" width="4" height="4"/><rect class="cls-33" x="18.5" y="76.5" width="4" height="4"/><rect class="cls-34" x="30.5" y="4.5" width="4" height="4"/><rect class="cls-35" x="30.5" y="10.5" width="4" height="4"/><rect class="cls-36" x="30.5" y="16.5" width="4" height="4"/><rect class="cls-37" x="30.5" y="22.5" width="4" height="4"/><rect class="cls-38" x="30.5" y="28.5" width="4" height="4"/><rect class="cls-39" x="30.5" y="34.5" width="4" height="4"/><rect class="cls-40" x="30.5" y="40.5" width="4" height="4"/><rect class="cls-41" x="30.5" y="46.5" width="4" height="4"/><rect class="cls-42" x="30.5" y="52.5" width="4" height="4"/><rect class="cls-43" x="30.5" y="58.5" width="4" height="4"/><rect class="cls-44" x="30.5" y="64.5" width="4" height="4"/><rect class="cls-45" x="30.5" y="70.5" width="4" height="4"/><text class="cls-3" transform="translate(27 2.67)"><tspan class="cls-46">P</tspan><tspan class="cls-5" x="1.01" y="0">os</tspan><tspan class="cls-47" x="2.9" y="0">t</tspan><tspan class="cls-48" x="3.56" y="0">-</tspan><tspan class="cls-6" x="4.2" y="0">C</tspan><tspan x="5.34" y="0">olonies</tspan></text><rect class="cls-49" x="30.5" y="76.5" width="4" height="4"/><rect class="cls-50" x="58.5" y="104.5" width="4" height="4"/><text class="cls-3" transform="translate(51.11 106.67)"><tspan class="cls-51">W</tspan><tspan class="cls-7" x="1.63" y="0">at</tspan><tspan x="3.23" y="0">er</tspan></text><rect class="cls-52" x="58.5" y="110.5" width="4" height="4"/><text class="cls-3" transform="translate(43.69 111.67)">Not <tspan class="cls-53" x="3.5" y="0">C</tspan><tspan x="4.64" y="0">o</tspan><tspan class="cls-7" x="5.74" y="0">n</tspan><tspan x="6.84" y="0">t</tspan><tspan class="cls-54" x="7.5" y="0">r</tspan><tspan x="8.13" y="0">olled</tspan><tspan class="cls-55" x="1.42" y="2.4">b</tspan><tspan x="2.55" y="2.4">y an Empi</tspan><tspan class="cls-54" x="10.67" y="2.4">r</tspan><tspan x="11.3" y="2.4">e</tspan></text><rect class="cls-56" x="58.5" y="116.5" width="4" height="4"/><text class="cls-3" transform="translate(37.95 117.67)"><tspan class="cls-57">M</tspan><tspan class="cls-58" x="1.63" y="0">is</tspan><tspan class="cls-59" x="2.89" y="0">c</tspan><tspan x="3.78" y="0">ellaneous </tspan><tspan class="cls-53" x="12.21" y="0">C</tspan><tspan x="13.35" y="0">olo</tspan><tspan class="cls-60" x="16.02" y="0">n</tspan><tspan x="17.1" y="0">y</tspan><tspan x="-1.98" y="2.4">or </tspan><tspan class="cls-61" x="0.19" y="2.4">A</tspan><tspan class="cls-54" x="1.41" y="2.4">r</tspan><tspan x="2.05" y="2.4">ea of Special </tspan><tspan class="cls-62" x="12.89" y="2.4">Sta</tspan><tspan x="15.49" y="2.4">tus</tspan></text><rect class="cls-63" x="58.5" y="98.5" width="4" height="4"/><text class="cls-3" transform="translate(42.58 100.67)"><tspan class="cls-6">C</tspan><tspan class="cls-5" x="1.14" y="0">ommo</tspan><tspan class="cls-64" x="6.67" y="0">n</tspan><tspan class="cls-54" x="7.75" y="0">w</tspan><tspan x="9.21" y="0">ealth</tspan></text><rect class="cls-65" x="58.5" y="122.5" width="4" height="4"/><text class="cls-3" transform="translate(36.58 123.67)">Non<tspan class="cls-66" x="3.52" y="0">-</tspan><tspan class="cls-53" x="4.17" y="0">C</tspan><tspan x="5.3" y="0">olonizing Empi</tspan><tspan class="cls-67" x="17.78" y="0">r</tspan><tspan x="18.42" y="0">e</tspan><tspan x="3.19" y="2.4">or </tspan><tspan class="cls-68" x="5.37" y="2.4">E</tspan><tspan x="6.34" y="2.4">u</tspan><tspan class="cls-54" x="7.44" y="2.4">r</tspan><tspan x="8.07" y="2.4">opean N</tspan><tspan class="cls-7" x="15.13" y="2.4">a</tspan><tspan x="16.08" y="2.4">tion</tspan></text><rect class="cls-69" x="26.5" y="98.5" width="4" height="4"/><text class="cls-3" transform="translate(19.19 100.67)">China</text><rect class="cls-70" x="26.5" y="104.5" width="4" height="4"/><text class="cls-3" transform="translate(10.12 106.67)"><tspan class="cls-71">O</tspan><tspan x="1.41" y="0">t</tspan><tspan class="cls-59" x="2.07" y="0">t</tspan><tspan class="cls-5" x="2.72" y="0">oman Empi</tspan><tspan class="cls-54" x="12.25" y="0">r</tspan><tspan x="12.88" y="0">e</tspan></text><rect class="cls-72" x="26.5" y="110.5" width="4" height="4"/><text class="cls-3" transform="translate(4.41 111.67)"><tspan class="cls-71">O</tspan><tspan x="1.41" y="0">t</tspan><tspan class="cls-59" x="2.07" y="0">t</tspan><tspan class="cls-5" x="2.72" y="0">oman Empi</tspan><tspan class="cls-54" x="12.25" y="0">r</tspan><tspan x="12.88" y="0">e: Clie</tspan><tspan class="cls-7" x="17.82" y="0">n</tspan><tspan x="18.92" y="0">t</tspan><tspan class="cls-61" x="2.11" y="2.4">S</tspan><tspan x="3.09" y="2.4">t</tspan><tspan class="cls-7" x="3.75" y="2.4">at</tspan><tspan x="5.36" y="2.4">es and </tspan><tspan class="cls-73" x="11.2" y="2.4">R</tspan><tspan x="12.29" y="2.4">emna</tspan><tspan class="cls-7" x="17.03" y="2.4">n</tspan><tspan class="cls-5" x="18.13" y="2.4">ts</tspan></text><text class="cls-3" transform="translate(36 6.96)">Uni<tspan class="cls-74" x="2.87" y="0">t</tspan><tspan x="3.52" y="0">ed </tspan><tspan class="cls-75" x="6.08" y="0">K</tspan><tspan x="7.18" y="0">ingdom</tspan></text><text class="cls-3" transform="translate(36 12.96)">Spain</text><text class="cls-3" transform="translate(36 18.96)"><tspan class="cls-76">F</tspan><tspan class="cls-47" x="0.92" y="0">r</tspan><tspan x="1.57" y="0">an</tspan><tspan class="cls-77" x="3.64" y="0">c</tspan><tspan x="4.52" y="0">e</tspan></text><text class="cls-78" transform="translate(36 24.96)">P<tspan class="cls-79" x="1.01" y="0">o</tspan><tspan class="cls-80" x="2.11" y="0">r</tspan><tspan class="cls-81" x="2.81" y="0">tugal</tspan></text><text class="cls-3" transform="translate(36 30.96)"><tspan class="cls-73">D</tspan><tspan x="1.34" y="0">enma</tspan><tspan class="cls-73" x="6.08" y="0">r</tspan><tspan x="6.75" y="0">k</tspan></text><text class="cls-3" transform="translate(36 36.96)">Japan</text><text class="cls-3" transform="translate(36 42.96)"><tspan class="cls-73">B</tspan><tspan x="1.09" y="0">el</tspan><tspan class="cls-74" x="2.57" y="0">g</tspan><tspan x="3.67" y="0">ium</tspan></text><text class="cls-3" transform="translate(36 48.96)">Nethe<tspan class="cls-73" x="5.09" y="0">r</tspan><tspan x="5.75" y="0">lands</tspan></text><text class="cls-3" transform="translate(36 54.96)"><tspan class="cls-82">G</tspan><tspan x="1.3" y="0">e</tspan><tspan class="cls-73" x="2.3" y="0">r</tspan><tspan x="2.97" y="0">ma</tspan><tspan class="cls-83" x="5.6" y="0">n</tspan><tspan x="6.68" y="0">y</tspan></text><text class="cls-3" transform="translate(36 60.96)"><tspan class="cls-84">I</tspan><tspan x="0.51" y="0">taly and </tspan><tspan class="cls-85" x="7.6" y="0">S</tspan><tspan class="cls-86" x="8.59" y="0">avo</tspan><tspan x="11.57" y="0">y</tspan></text><text class="cls-3" transform="translate(36 66.96)"><tspan class="cls-87">Sw</tspan><tspan x="2.42" y="0">eden</tspan></text><text class="cls-3" transform="translate(36 72.96)"><tspan class="cls-74">E</tspan><tspan x="0.97" y="0">gypt</tspan></text><text class="cls-3" transform="translate(36 78.96)">Russia</text></svg>